solid labyrinthe V1.1
facet normal 0.0 0.0 -1.0
  outer loop
    vertex 125.99999999999997 101.0 0.0
    vertex -0.9999999999999999 -0.9999999999999999 0.0
    vertex -0.9999999999999999 101.0 0.0
  endloop
endfacet
facet normal 0.0 0.0 -1.0
  outer loop
    vertex -0.9999999999999999 -0.9999999999999999 0.0
    vertex 125.99999999999997 101.0 0.0
    vertex 125.99999999999997 -0.9999999999999999 0.0
  endloop
endfacet
facet normal 1.0 0.0 0.0
  outer loop
    vertex 125.99999999999997 101.0 0.0
    vertex 125.99999999999997 -0.9999999999999999 12.999999999999998
    vertex 125.99999999999997 -0.9999999999999999 0.0
  endloop
endfacet
facet normal 1.0 0.0 0.0
  outer loop
    vertex 125.99999999999997 -0.9999999999999999 12.999999999999998
    vertex 125.99999999999997 101.0 0.0
    vertex 125.99999999999997 101.0 12.999999999999998
  endloop
endfacet
facet normal -0.0 -1.0 -0.0
  outer loop
    vertex 125.99999999999997 -0.9999999999999999 12.999999999999998
    vertex -0.9999999999999999 -0.9999999999999999 0.0
    vertex 125.99999999999997 -0.9999999999999999 0.0
  endloop
endfacet
facet normal -0.0 -1.0 -0.0
  outer loop
    vertex -0.9999999999999999 -0.9999999999999999 0.0
    vertex 125.99999999999997 -0.9999999999999999 12.999999999999998
    vertex -0.9999999999999999 -0.9999999999999999 12.999999999999998
  endloop
endfacet
facet normal -1.0 0.0 0.0
  outer loop
    vertex -0.9999999999999999 101.0 12.999999999999998
    vertex -0.9999999999999999 -0.9999999999999999 0.0
    vertex -0.9999999999999999 -0.9999999999999999 12.999999999999998
  endloop
endfacet
facet normal -1.0 0.0 0.0
  outer loop
    vertex -0.9999999999999999 -0.9999999999999999 0.0
    vertex -0.9999999999999999 101.0 12.999999999999998
    vertex -0.9999999999999999 101.0 0.0
  endloop
endfacet
facet normal 0.0 1.0 0.0
  outer loop
    vertex -0.9999999999999999 101.0 12.999999999999998
    vertex 125.99999999999997 101.0 0.0
    vertex -0.9999999999999999 101.0 0.0
  endloop
endfacet
facet normal 0.0 1.0 0.0
  outer loop
    vertex 125.99999999999997 101.0 0.0
    vertex -0.9999999999999999 101.0 12.999999999999998
    vertex 125.99999999999997 101.0 12.999999999999998
  endloop
endfacet
facet normal 0.0 0.0 1.0
  outer loop
    vertex 38.99999999999999 37.99999999999999 0.9999999999999999
    vertex 48.99999999999999 27.99999999999999 0.9999999999999999
    vertex 59.99999999999999 37.99999999999999 0.9999999999999999
  endloop
endfacet
facet normal 0.0 0.0 1.0
  outer loop
    vertex 48.99999999999999 27.99999999999999 0.9999999999999999
    vertex 38.99999999999999 37.99999999999999 0.9999999999999999
    vertex 48.999999999999986 26.99999999999999 0.9999999999999999
  endloop
endfacet
facet normal 0.0 0.0 1.0
  outer loop
    vertex 59.99999999999999 37.99999999999999 0.9999999999999999
    vertex 48.99999999999999 27.99999999999999 0.9999999999999999
    vertex 70.0 27.99999999999999 0.9999999999999999
  endloop
endfacet
facet normal 0.0 0.0 1.0
  outer loop
    vertex 59.99999999999999 37.99999999999999 0.9999999999999999
    vertex 70.0 27.99999999999999 0.9999999999999999
    vertex 59.99999999999999 38.99999999999999 0.9999999999999999
  endloop
endfacet
facet normal 0.0 0.0 1.0
  outer loop
    vertex 38.99999999999999 38.99999999999999 0.9999999999999999
    vertex 48.99999999999999 48.999999999999986 0.9999999999999999
    vertex 38.99999999999999 58.99999999999999 0.9999999999999999
  endloop
endfacet
facet normal 0.0 0.0 1.0
  outer loop
    vertex 48.99999999999999 48.999999999999986 0.9999999999999999
    vertex 38.99999999999999 38.99999999999999 0.9999999999999999
    vertex 59.99999999999999 38.99999999999999 0.9999999999999999
  endloop
endfacet
facet normal 0.0 0.0 1.0
  outer loop
    vertex 48.99999999999999 48.999999999999986 0.9999999999999999
    vertex 59.99999999999999 38.99999999999999 0.9999999999999999
    vertex 70.0 48.999999999999986 0.9999999999999999
  endloop
endfacet
facet normal 0.0 0.0 1.0
  outer loop
    vertex 70.0 48.999999999999986 0.9999999999999999
    vertex 59.99999999999999 38.99999999999999 0.9999999999999999
    vertex 70.0 27.99999999999999 0.9999999999999999
  endloop
endfacet
facet normal 0.0 0.0 1.0
  outer loop
    vertex 38.0 16.999999999999993 0.9999999999999999
    vertex 28.0 88.0 0.9999999999999999
    vertex 28.0 16.999999999999993 0.9999999999999999
  endloop
endfacet
facet normal 0.0 0.0 1.0
  outer loop
    vertex 28.0 88.0 0.9999999999999999
    vertex 38.0 16.999999999999993 0.9999999999999999
    vertex 38.0 78.99999999999999 0.9999999999999999
  endloop
endfacet
facet normal 0.0 0.0 1.0
  outer loop
    vertex 28.0 88.0 0.9999999999999999
    vertex 38.0 78.99999999999999 0.9999999999999999
    vertex 49.0 88.0 0.9999999999999999
  endloop
endfacet
facet normal 0.0 0.0 1.0
  outer loop
    vertex 49.0 88.0 0.9999999999999999
    vertex 38.0 78.99999999999999 0.9999999999999999
    vertex 59.00000000000001 78.99999999999999 0.9999999999999999
  endloop
endfacet
facet normal 0.0 0.0 1.0
  outer loop
    vertex 49.0 88.0 0.9999999999999999
    vertex 59.00000000000001 78.99999999999999 0.9999999999999999
    vertex 49.0 89.0 0.9999999999999999
  endloop
endfacet
facet normal 0.0 0.0 1.0
  outer loop
    vertex 38.99999999999999 77.99999999999999 0.9999999999999999
    vertex 49.0 68.99999999999999 0.9999999999999999
    vertex 60.0 77.99999999999999 0.9999999999999999
  endloop
endfacet
facet normal 0.0 0.0 1.0
  outer loop
    vertex 49.0 68.99999999999999 0.9999999999999999
    vertex 38.99999999999999 77.99999999999999 0.9999999999999999
    vertex 49.0 67.99999999999999 0.9999999999999999
  endloop
endfacet
facet normal 0.0 0.0 1.0
  outer loop
    vertex 60.0 77.99999999999999 0.9999999999999999
    vertex 49.0 68.99999999999999 0.9999999999999999
    vertex 71.0 68.99999999999993 0.9999999999999999
  endloop
endfacet
facet normal 0.0 0.0 1.0
  outer loop
    vertex 60.0 77.99999999999999 0.9999999999999999
    vertex 71.0 68.99999999999993 0.9999999999999999
    vertex 60.0 89.0 0.9999999999999999
  endloop
endfacet
facet normal 0.0 0.0 1.0
  outer loop
    vertex 60.0 89.0 0.9999999999999999
    vertex 71.0 68.99999999999993 0.9999999999999999
    vertex 70.0 77.99999999999999 0.9999999999999999
  endloop
endfacet
facet normal 0.0 0.0 1.0
  outer loop
    vertex 70.0 77.99999999999999 0.9999999999999999
    vertex 71.0 68.99999999999993 0.9999999999999999
    vertex 71.0 77.99999999999999 0.9999999999999999
  endloop
endfacet
facet normal 0.0 0.0 1.0
  outer loop
    vertex 124.00000000000001 0.9999999999999996 0.9999999999999999
    vertex 47.76005044801429 16.000000000000004 0.9999999999999999
    vertex 47.76005044801429 1.0000000000000038 0.9999999999999999
  endloop
endfacet
facet normal 0.0 0.0 1.0
  outer loop
    vertex 47.76005044801429 16.000000000000004 0.9999999999999999
    vertex 124.00000000000001 0.9999999999999996 0.9999999999999999
    vertex 71.0 16.000000000000004 0.9999999999999999
  endloop
endfacet
facet normal 0.0 0.0 1.0
  outer loop
    vertex 71.0 16.000000000000004 0.9999999999999999
    vertex 124.00000000000001 0.9999999999999996 0.9999999999999999
    vertex 71.0 16.999999999999996 0.9999999999999999
  endloop
endfacet
facet normal 0.0 0.0 1.0
  outer loop
    vertex 71.0 16.999999999999996 0.9999999999999999
    vertex 124.00000000000001 0.9999999999999996 0.9999999999999999
    vertex 81.0 16.000000000000007 0.9999999999999999
  endloop
endfacet
facet normal 0.0 0.0 1.0
  outer loop
    vertex 81.0 16.000000000000007 0.9999999999999999
    vertex 124.00000000000001 0.9999999999999996 0.9999999999999999
    vertex 124.00000000000001 15.999999999999984 0.9999999999999999
  endloop
endfacet
facet normal 0.0 0.0 1.0
  outer loop
    vertex 91.99999999999999 37.999999999999986 0.9999999999999999
    vertex 82.00000000000001 89.0 0.9999999999999999
    vertex 82.00000000000001 37.999999999999986 0.9999999999999999
  endloop
endfacet
facet normal 0.0 0.0 1.0
  outer loop
    vertex 38.99999999999999 16.999999999999993 0.9999999999999999
    vertex 48.999999999999986 26.99999999999999 0.9999999999999999
    vertex 38.99999999999999 37.99999999999999 0.9999999999999999
  endloop
endfacet
facet normal 0.0 0.0 1.0
  outer loop
    vertex 48.999999999999986 26.99999999999999 0.9999999999999999
    vertex 38.99999999999999 16.999999999999993 0.9999999999999999
    vertex 71.0 16.999999999999996 0.9999999999999999
  endloop
endfacet
facet normal 0.0 0.0 1.0
  outer loop
    vertex 48.999999999999986 26.99999999999999 0.9999999999999999
    vertex 71.0 16.999999999999996 0.9999999999999999
    vertex 81.0 26.99999999999999 0.9999999999999999
  endloop
endfacet
facet normal 0.0 0.0 1.0
  outer loop
    vertex 81.0 26.99999999999999 0.9999999999999999
    vertex 71.0 16.999999999999996 0.9999999999999999
    vertex 81.0 16.000000000000007 0.9999999999999999
  endloop
endfacet
facet normal 0.0 0.0 1.0
  outer loop
    vertex 81.0 26.99999999999999 0.9999999999999999
    vertex 81.0 16.000000000000007 0.9999999999999999
    vertex 81.0 16.999999999999993 0.9999999999999999
  endloop
endfacet
facet normal 0.0 0.0 1.0
  outer loop
    vertex 81.0 26.99999999999999 0.9999999999999999
    vertex 81.0 16.999999999999993 0.9999999999999999
    vertex 113.00000000000001 16.999999999999993 0.9999999999999999
  endloop
endfacet
facet normal 0.0 0.0 1.0
  outer loop
    vertex 81.0 26.99999999999999 0.9999999999999999
    vertex 113.00000000000001 16.999999999999993 0.9999999999999999
    vertex 81.0 27.99999999999999 0.9999999999999999
  endloop
endfacet
facet normal 0.0 0.0 1.0
  outer loop
    vertex 81.0 27.99999999999999 0.9999999999999999
    vertex 113.00000000000001 16.999999999999993 0.9999999999999999
    vertex 90.99999999999999 26.99999999999999 0.9999999999999999
  endloop
endfacet
facet normal 0.0 0.0 1.0
  outer loop
    vertex 90.99999999999999 26.99999999999999 0.9999999999999999
    vertex 113.00000000000001 16.999999999999993 0.9999999999999999
    vertex 102.99999999999999 26.99999999999999 0.9999999999999999
  endloop
endfacet
facet normal 0.0 0.0 1.0
  outer loop
    vertex 102.99999999999999 26.99999999999999 0.9999999999999999
    vertex 113.00000000000001 16.999999999999993 0.9999999999999999
    vertex 102.99999999999999 77.99999999999999 0.9999999999999999
  endloop
endfacet
facet normal 0.0 0.0 1.0
  outer loop
    vertex 124.00000000000001 17.000000000000004 0.9999999999999999
    vertex 114.00000000000001 37.999999999999986 0.9999999999999999
    vertex 114.00000000000001 16.999999999999993 0.9999999999999999
  endloop
endfacet
facet normal 0.0 0.0 1.0
  outer loop
    vertex 114.00000000000001 37.999999999999986 0.9999999999999999
    vertex 124.00000000000001 17.000000000000004 0.9999999999999999
    vertex 114.00000000000001 48.99999999999999 0.9999999999999999
  endloop
endfacet
facet normal 0.0 0.0 1.0
  outer loop
    vertex 114.00000000000001 48.99999999999999 0.9999999999999999
    vertex 124.00000000000001 17.000000000000004 0.9999999999999999
    vertex 114.00000000000001 89.0 0.9999999999999999
  endloop
endfacet
facet normal 0.0 0.0 1.0
  outer loop
    vertex 27.0 16.999999999999993 0.9999999999999999
    vertex 17.000000000000004 27.99999999999999 0.9999999999999999
    vertex 17.000000000000004 17.000000000000004 0.9999999999999999
  endloop
endfacet
facet normal 0.0 0.0 1.0
  outer loop
    vertex 17.000000000000004 27.99999999999999 0.9999999999999999
    vertex 27.0 16.999999999999993 0.9999999999999999
    vertex 17.000000000000004 37.98565731542636 0.9999999999999999
  endloop
endfacet
facet normal 0.0 0.0 1.0
  outer loop
    vertex 17.000000000000004 37.98565731542636 0.9999999999999999
    vertex 27.0 16.999999999999993 0.9999999999999999
    vertex 17.000000000000004 99.0 0.9999999999999999
  endloop
endfacet
facet normal 0.0 0.0 1.0
  outer loop
    vertex 17.000000000000004 99.0 0.9999999999999999
    vertex 27.0 16.999999999999993 0.9999999999999999
    vertex 27.0 89.0 0.9999999999999999
  endloop
endfacet
facet normal 0.0 0.0 1.0
  outer loop
    vertex 17.000000000000004 99.0 0.9999999999999999
    vertex 27.0 89.0 0.9999999999999999
    vertex 124.00000000000001 99.00000000000001 0.9999999999999999
  endloop
endfacet
facet normal 0.0 0.0 1.0
  outer loop
    vertex 124.00000000000001 99.00000000000001 0.9999999999999999
    vertex 27.0 89.0 0.9999999999999999
    vertex 49.0 89.0 0.9999999999999999
  endloop
endfacet
facet normal 0.0 0.0 1.0
  outer loop
    vertex 124.00000000000001 99.00000000000001 0.9999999999999999
    vertex 49.0 89.0 0.9999999999999999
    vertex 59.00000000000001 89.0 0.9999999999999999
  endloop
endfacet
facet normal 0.0 0.0 1.0
  outer loop
    vertex 59.00000000000001 89.0 0.9999999999999999
    vertex 49.0 89.0 0.9999999999999999
    vertex 59.00000000000001 78.99999999999999 0.9999999999999999
  endloop
endfacet
facet normal 0.0 0.0 1.0
  outer loop
    vertex 124.00000000000001 99.00000000000001 0.9999999999999999
    vertex 59.00000000000001 89.0 0.9999999999999999
    vertex 60.0 89.0 0.9999999999999999
  endloop
endfacet
facet normal 0.0 0.0 1.0
  outer loop
    vertex 124.00000000000001 99.00000000000001 0.9999999999999999
    vertex 60.0 89.0 0.9999999999999999
    vertex 70.0 89.0 0.9999999999999999
  endloop
endfacet
facet normal 0.0 0.0 1.0
  outer loop
    vertex 70.0 89.0 0.9999999999999999
    vertex 60.0 89.0 0.9999999999999999
    vertex 70.0 77.99999999999999 0.9999999999999999
  endloop
endfacet
facet normal 0.0 0.0 1.0
  outer loop
    vertex 124.00000000000001 99.00000000000001 0.9999999999999999
    vertex 70.0 89.0 0.9999999999999999
    vertex 71.0 89.0 0.9999999999999999
  endloop
endfacet
facet normal 0.0 0.0 1.0
  outer loop
    vertex 124.00000000000001 99.00000000000001 0.9999999999999999
    vertex 71.0 89.0 0.9999999999999999
    vertex 81.00000000000001 89.0 0.9999999999999999
  endloop
endfacet
facet normal 0.0 0.0 1.0
  outer loop
    vertex 81.00000000000001 89.0 0.9999999999999999
    vertex 71.0 89.0 0.9999999999999999
    vertex 80.99999999999999 36.999999999999986 0.9999999999999999
  endloop
endfacet
facet normal 0.0 0.0 1.0
  outer loop
    vertex 124.00000000000001 99.00000000000001 0.9999999999999999
    vertex 81.00000000000001 89.0 0.9999999999999999
    vertex 82.00000000000001 89.0 0.9999999999999999
  endloop
endfacet
facet normal 0.0 0.0 1.0
  outer loop
    vertex 124.00000000000001 99.00000000000001 0.9999999999999999
    vertex 82.00000000000001 89.0 0.9999999999999999
    vertex 92.00000000000001 89.0 0.9999999999999999
  endloop
endfacet
facet normal 0.0 0.0 1.0
  outer loop
    vertex 92.00000000000001 89.0 0.9999999999999999
    vertex 82.00000000000001 89.0 0.9999999999999999
    vertex 91.99999999999999 37.999999999999986 0.9999999999999999
  endloop
endfacet
facet normal 0.0 0.0 1.0
  outer loop
    vertex 92.00000000000001 89.0 0.9999999999999999
    vertex 91.99999999999999 37.999999999999986 0.9999999999999999
    vertex 92.00000000000001 48.99999999999999 0.9999999999999999
  endloop
endfacet
facet normal 0.0 0.0 1.0
  outer loop
    vertex 124.00000000000001 99.00000000000001 0.9999999999999999
    vertex 92.00000000000001 89.0 0.9999999999999999
    vertex 114.00000000000001 89.0 0.9999999999999999
  endloop
endfacet
facet normal 0.0 0.0 1.0
  outer loop
    vertex 124.00000000000001 99.00000000000001 0.9999999999999999
    vertex 114.00000000000001 89.0 0.9999999999999999
    vertex 124.00000000000001 17.000000000000004 0.9999999999999999
  endloop
endfacet
facet normal 0.0 0.0 1.0
  outer loop
    vertex 114.00000000000001 37.999999999999986 0.9999999999999999
    vertex 113.00000000000001 48.99999999999999 0.9999999999999999
    vertex 113.00000000000001 37.999999999999986 0.9999999999999999
  endloop
endfacet
facet normal 0.0 0.0 1.0
  outer loop
    vertex 113.00000000000001 48.99999999999999 0.9999999999999999
    vertex 114.00000000000001 37.999999999999986 0.9999999999999999
    vertex 114.00000000000001 48.99999999999999 0.9999999999999999
  endloop
endfacet
facet normal 0.0 0.0 1.0
  outer loop
    vertex 102.0 27.99999999999999 0.9999999999999999
    vertex 91.99999999999999 37.999999999999986 0.9999999999999999
    vertex 91.99999999999999 27.99999999999999 0.9999999999999999
  endloop
endfacet
facet normal 0.0 0.0 1.0
  outer loop
    vertex 91.99999999999999 37.999999999999986 0.9999999999999999
    vertex 102.0 27.99999999999999 0.9999999999999999
    vertex 92.00000000000001 48.99999999999999 0.9999999999999999
  endloop
endfacet
facet normal 0.0 0.0 1.0
  outer loop
    vertex 92.00000000000001 48.99999999999999 0.9999999999999999
    vertex 102.0 27.99999999999999 0.9999999999999999
    vertex 93.00000000000001 48.99999999999999 0.9999999999999999
  endloop
endfacet
facet normal 0.0 0.0 1.0
  outer loop
    vertex 93.00000000000001 48.99999999999999 0.9999999999999999
    vertex 102.0 27.99999999999999 0.9999999999999999
    vertex 93.00000000000001 88.0 0.9999999999999999
  endloop
endfacet
facet normal 0.0 0.0 1.0
  outer loop
    vertex 93.00000000000001 88.0 0.9999999999999999
    vertex 102.0 27.99999999999999 0.9999999999999999
    vertex 102.0 77.99999999999999 0.9999999999999999
  endloop
endfacet
facet normal 0.0 0.0 1.0
  outer loop
    vertex 93.00000000000001 88.0 0.9999999999999999
    vertex 102.0 77.99999999999999 0.9999999999999999
    vertex 113.00000000000001 88.0 0.9999999999999999
  endloop
endfacet
facet normal 0.0 0.0 1.0
  outer loop
    vertex 113.00000000000001 88.0 0.9999999999999999
    vertex 102.0 77.99999999999999 0.9999999999999999
    vertex 102.99999999999999 77.99999999999999 0.9999999999999999
  endloop
endfacet
facet normal 0.0 0.0 1.0
  outer loop
    vertex 113.00000000000001 88.0 0.9999999999999999
    vertex 102.99999999999999 77.99999999999999 0.9999999999999999
    vertex 113.00000000000001 16.999999999999993 0.9999999999999999
  endloop
endfacet
facet normal 0.0 0.0 1.0
  outer loop
    vertex 113.00000000000001 88.0 0.9999999999999999
    vertex 113.00000000000001 16.999999999999993 0.9999999999999999
    vertex 113.00000000000001 37.999999999999986 0.9999999999999999
  endloop
endfacet
facet normal 0.0 0.0 1.0
  outer loop
    vertex 113.00000000000001 88.0 0.9999999999999999
    vertex 113.00000000000001 37.999999999999986 0.9999999999999999
    vertex 113.00000000000001 48.99999999999999 0.9999999999999999
  endloop
endfacet
facet normal 0.0 0.0 1.0
  outer loop
    vertex 81.0 27.99999999999999 0.9999999999999999
    vertex 71.0 68.99999999999993 0.9999999999999999
    vertex 71.0 27.999999999999982 0.9999999999999999
  endloop
endfacet
facet normal 0.0 0.0 1.0
  outer loop
    vertex 71.0 68.99999999999993 0.9999999999999999
    vertex 81.0 27.99999999999999 0.9999999999999999
    vertex 71.0 77.99999999999999 0.9999999999999999
  endloop
endfacet
facet normal 0.0 0.0 1.0
  outer loop
    vertex 71.0 77.99999999999999 0.9999999999999999
    vertex 81.0 27.99999999999999 0.9999999999999999
    vertex 71.0 89.0 0.9999999999999999
  endloop
endfacet
facet normal 0.0 0.0 1.0
  outer loop
    vertex 71.0 89.0 0.9999999999999999
    vertex 81.0 27.99999999999999 0.9999999999999999
    vertex 80.99999999999999 36.999999999999986 0.9999999999999999
  endloop
endfacet
facet normal 0.0 0.0 1.0
  outer loop
    vertex 80.99999999999999 36.999999999999986 0.9999999999999999
    vertex 81.0 27.99999999999999 0.9999999999999999
    vertex 90.99999999999999 36.999999999999986 0.9999999999999999
  endloop
endfacet
facet normal 0.0 0.0 1.0
  outer loop
    vertex 90.99999999999999 36.999999999999986 0.9999999999999999
    vertex 81.0 27.99999999999999 0.9999999999999999
    vertex 90.99999999999999 26.99999999999999 0.9999999999999999
  endloop
endfacet
facet normal 0.0 0.0 1.0
  outer loop
    vertex 38.99999999999999 58.99999999999999 0.9999999999999999
    vertex 49.0 49.999999999999986 0.9999999999999999
    vertex 59.99999999999999 58.99999999999999 0.9999999999999999
  endloop
endfacet
facet normal 0.0 0.0 1.0
  outer loop
    vertex 49.0 49.999999999999986 0.9999999999999999
    vertex 38.99999999999999 58.99999999999999 0.9999999999999999
    vertex 48.99999999999999 48.999999999999986 0.9999999999999999
  endloop
endfacet
facet normal 0.0 0.0 1.0
  outer loop
    vertex 59.99999999999999 58.99999999999999 0.9999999999999999
    vertex 49.0 49.999999999999986 0.9999999999999999
    vertex 70.0 49.999999999999986 0.9999999999999999
  endloop
endfacet
facet normal 0.0 0.0 1.0
  outer loop
    vertex 59.99999999999999 58.99999999999999 0.9999999999999999
    vertex 70.0 49.999999999999986 0.9999999999999999
    vertex 59.99999999999999 59.99999999999999 0.9999999999999999
  endloop
endfacet
facet normal 0.0 0.0 1.0
  outer loop
    vertex 38.99999999999999 59.99999999999999 0.9999999999999999
    vertex 49.0 67.99999999999999 0.9999999999999999
    vertex 38.99999999999999 77.99999999999999 0.9999999999999999
  endloop
endfacet
facet normal 0.0 0.0 1.0
  outer loop
    vertex 49.0 67.99999999999999 0.9999999999999999
    vertex 38.99999999999999 59.99999999999999 0.9999999999999999
    vertex 59.99999999999999 59.99999999999999 0.9999999999999999
  endloop
endfacet
facet normal 0.0 0.0 1.0
  outer loop
    vertex 49.0 67.99999999999999 0.9999999999999999
    vertex 59.99999999999999 59.99999999999999 0.9999999999999999
    vertex 70.0 67.99999999999999 0.9999999999999999
  endloop
endfacet
facet normal 0.0 0.0 1.0
  outer loop
    vertex 70.0 67.99999999999999 0.9999999999999999
    vertex 59.99999999999999 59.99999999999999 0.9999999999999999
    vertex 70.0 49.999999999999986 0.9999999999999999
  endloop
endfacet
facet normal 0.0 0.0 1.0
  outer loop
    vertex 0.9999999999999999 0.9999999999999981 0.9999999999999999
    vertex 16.000000000000014 16.0 0.9999999999999999
    vertex 0.9999999999999999 99.0 0.9999999999999999
  endloop
endfacet
facet normal 0.0 0.0 1.0
  outer loop
    vertex 16.000000000000014 16.0 0.9999999999999999
    vertex 0.9999999999999999 0.9999999999999981 0.9999999999999999
    vertex 46.76005044801429 1.0000000000000038 0.9999999999999999
  endloop
endfacet
facet normal 0.0 0.0 1.0
  outer loop
    vertex 0.9999999999999999 99.0 0.9999999999999999
    vertex 16.000000000000014 16.0 0.9999999999999999
    vertex 16.000000000000014 27.99999999999999 0.9999999999999999
  endloop
endfacet
facet normal 0.0 0.0 1.0
  outer loop
    vertex 0.9999999999999999 99.0 0.9999999999999999
    vertex 16.000000000000014 27.99999999999999 0.9999999999999999
    vertex 16.0 99.0 0.9999999999999999
  endloop
endfacet
facet normal 0.0 0.0 1.0
  outer loop
    vertex 16.000000000000014 16.0 0.9999999999999999
    vertex 46.76005044801429 1.0000000000000038 0.9999999999999999
    vertex 46.76005044801429 16.000000000000004 0.9999999999999999
  endloop
endfacet
facet normal 0.0 0.0 1.0
  outer loop
    vertex 16.000000000000014 27.99999999999999 0.9999999999999999
    vertex 16.000000000000014 37.98565731542636 0.9999999999999999
    vertex 16.0 99.0 0.9999999999999999
  endloop
endfacet
facet normal 0.0 0.0 1.0
  outer loop
    vertex 16.000000000000014 37.98565731542636 0.9999999999999999
    vertex 16.000000000000014 27.99999999999999 0.9999999999999999
    vertex 17.000000000000004 27.99999999999999 0.9999999999999999
  endloop
endfacet
facet normal 0.0 0.0 1.0
  outer loop
    vertex 16.000000000000014 37.98565731542636 0.9999999999999999
    vertex 17.000000000000004 27.99999999999999 0.9999999999999999
    vertex 17.000000000000004 37.98565731542636 0.9999999999999999
  endloop
endfacet
facet normal 0.0 0.0 1.0
  outer loop
    vertex -0.9999999999999999 -0.9999999999999999 12.999999999999998
    vertex 0.9999999999999999 0.9999999999999981 12.999999999999998
    vertex -0.9999999999999999 101.0 12.999999999999998
  endloop
endfacet
facet normal 0.0 0.0 1.0
  outer loop
    vertex 0.9999999999999999 0.9999999999999981 12.999999999999998
    vertex -0.9999999999999999 -0.9999999999999999 12.999999999999998
    vertex 125.99999999999997 -0.9999999999999999 12.999999999999998
  endloop
endfacet
facet normal 0.0 0.0 1.0
  outer loop
    vertex 0.9999999999999999 0.9999999999999981 12.999999999999998
    vertex 125.99999999999997 -0.9999999999999999 12.999999999999998
    vertex 46.76005044801429 1.0000000000000038 12.999999999999998
  endloop
endfacet
facet normal 0.0 0.0 1.0
  outer loop
    vertex 46.76005044801429 1.0000000000000038 12.999999999999998
    vertex 125.99999999999997 -0.9999999999999999 12.999999999999998
    vertex 47.76005044801429 1.0000000000000038 12.999999999999998
  endloop
endfacet
facet normal 0.0 0.0 1.0
  outer loop
    vertex 46.76005044801429 1.0000000000000038 12.999999999999998
    vertex 47.76005044801429 1.0000000000000038 12.999999999999998
    vertex 46.76005044801429 16.000000000000004 12.999999999999998
  endloop
endfacet
facet normal 0.0 0.0 1.0
  outer loop
    vertex 47.76005044801429 1.0000000000000038 12.999999999999998
    vertex 125.99999999999997 -0.9999999999999999 12.999999999999998
    vertex 124.00000000000001 0.9999999999999996 12.999999999999998
  endloop
endfacet
facet normal 0.0 0.0 1.0
  outer loop
    vertex 124.00000000000001 0.9999999999999996 12.999999999999998
    vertex 125.99999999999997 -0.9999999999999999 12.999999999999998
    vertex 124.00000000000001 15.999999999999984 12.999999999999998
  endloop
endfacet
facet normal 0.0 0.0 1.0
  outer loop
    vertex 124.00000000000001 15.999999999999984 12.999999999999998
    vertex 125.99999999999997 -0.9999999999999999 12.999999999999998
    vertex 124.00000000000001 17.000000000000004 12.999999999999998
  endloop
endfacet
facet normal 0.0 0.0 1.0
  outer loop
    vertex 124.00000000000001 17.000000000000004 12.999999999999998
    vertex 125.99999999999997 -0.9999999999999999 12.999999999999998
    vertex 124.00000000000001 99.00000000000001 12.999999999999998
  endloop
endfacet
facet normal 0.0 0.0 1.0
  outer loop
    vertex -0.9999999999999999 101.0 12.999999999999998
    vertex 0.9999999999999999 99.0 12.999999999999998
    vertex 125.99999999999997 101.0 12.999999999999998
  endloop
endfacet
facet normal 0.0 0.0 1.0
  outer loop
    vertex 0.9999999999999999 99.0 12.999999999999998
    vertex -0.9999999999999999 101.0 12.999999999999998
    vertex 0.9999999999999999 0.9999999999999981 12.999999999999998
  endloop
endfacet
facet normal 0.0 0.0 1.0
  outer loop
    vertex 125.99999999999997 101.0 12.999999999999998
    vertex 0.9999999999999999 99.0 12.999999999999998
    vertex 16.0 99.0 12.999999999999998
  endloop
endfacet
facet normal 0.0 0.0 1.0
  outer loop
    vertex 125.99999999999997 101.0 12.999999999999998
    vertex 16.0 99.0 12.999999999999998
    vertex 17.000000000000004 99.0 12.999999999999998
  endloop
endfacet
facet normal 0.0 0.0 1.0
  outer loop
    vertex 17.000000000000004 99.0 12.999999999999998
    vertex 16.0 99.0 12.999999999999998
    vertex 16.000000000000014 37.98565731542636 12.999999999999998
  endloop
endfacet
facet normal 0.0 0.0 1.0
  outer loop
    vertex 17.000000000000004 99.0 12.999999999999998
    vertex 16.000000000000014 37.98565731542636 12.999999999999998
    vertex 17.000000000000004 37.98565731542636 12.999999999999998
  endloop
endfacet
facet normal 0.0 0.0 1.0
  outer loop
    vertex 125.99999999999997 101.0 12.999999999999998
    vertex 17.000000000000004 99.0 12.999999999999998
    vertex 124.00000000000001 99.00000000000001 12.999999999999998
  endloop
endfacet
facet normal 0.0 0.0 1.0
  outer loop
    vertex 125.99999999999997 101.0 12.999999999999998
    vertex 124.00000000000001 99.00000000000001 12.999999999999998
    vertex 125.99999999999997 -0.9999999999999999 12.999999999999998
  endloop
endfacet
facet normal 0.0 0.0 1.0
  outer loop
    vertex 124.00000000000001 15.999999999999984 12.999999999999998
    vertex 81.0 16.999999999999993 12.999999999999998
    vertex 81.0 16.000000000000007 12.999999999999998
  endloop
endfacet
facet normal 0.0 0.0 1.0
  outer loop
    vertex 81.0 16.999999999999993 12.999999999999998
    vertex 124.00000000000001 15.999999999999984 12.999999999999998
    vertex 113.00000000000001 16.999999999999993 12.999999999999998
  endloop
endfacet
facet normal 0.0 0.0 1.0
  outer loop
    vertex 113.00000000000001 16.999999999999993 12.999999999999998
    vertex 124.00000000000001 15.999999999999984 12.999999999999998
    vertex 114.00000000000001 16.999999999999993 12.999999999999998
  endloop
endfacet
facet normal 0.0 0.0 1.0
  outer loop
    vertex 113.00000000000001 16.999999999999993 12.999999999999998
    vertex 114.00000000000001 16.999999999999993 12.999999999999998
    vertex 113.00000000000001 37.999999999999986 12.999999999999998
  endloop
endfacet
facet normal 0.0 0.0 1.0
  outer loop
    vertex 114.00000000000001 16.999999999999993 12.999999999999998
    vertex 124.00000000000001 15.999999999999984 12.999999999999998
    vertex 124.00000000000001 17.000000000000004 12.999999999999998
  endloop
endfacet
facet normal 0.0 0.0 1.0
  outer loop
    vertex 114.00000000000001 37.999999999999986 12.999999999999998
    vertex 113.00000000000001 37.999999999999986 12.999999999999998
    vertex 114.00000000000001 16.999999999999993 12.999999999999998
  endloop
endfacet
facet normal 0.0 0.0 1.0
  outer loop
    vertex 46.76005044801429 16.000000000000004 12.999999999999998
    vertex 17.000000000000004 17.000000000000004 12.999999999999998
    vertex 16.000000000000014 16.0 12.999999999999998
  endloop
endfacet
facet normal 0.0 0.0 1.0
  outer loop
    vertex 17.000000000000004 17.000000000000004 12.999999999999998
    vertex 46.76005044801429 16.000000000000004 12.999999999999998
    vertex 27.0 16.999999999999993 12.999999999999998
  endloop
endfacet
facet normal 0.0 0.0 1.0
  outer loop
    vertex 27.0 16.999999999999993 12.999999999999998
    vertex 46.76005044801429 16.000000000000004 12.999999999999998
    vertex 28.0 16.999999999999993 12.999999999999998
  endloop
endfacet
facet normal 0.0 0.0 1.0
  outer loop
    vertex 27.0 16.999999999999993 12.999999999999998
    vertex 28.0 16.999999999999993 12.999999999999998
    vertex 27.0 89.0 12.999999999999998
  endloop
endfacet
facet normal 0.0 0.0 1.0
  outer loop
    vertex 28.0 16.999999999999993 12.999999999999998
    vertex 46.76005044801429 16.000000000000004 12.999999999999998
    vertex 38.0 16.999999999999993 12.999999999999998
  endloop
endfacet
facet normal 0.0 0.0 1.0
  outer loop
    vertex 38.0 16.999999999999993 12.999999999999998
    vertex 46.76005044801429 16.000000000000004 12.999999999999998
    vertex 38.99999999999999 16.999999999999993 12.999999999999998
  endloop
endfacet
facet normal 0.0 0.0 1.0
  outer loop
    vertex 38.0 16.999999999999993 12.999999999999998
    vertex 38.99999999999999 16.999999999999993 12.999999999999998
    vertex 38.0 78.99999999999999 12.999999999999998
  endloop
endfacet
facet normal 0.0 0.0 1.0
  outer loop
    vertex 38.99999999999999 16.999999999999993 12.999999999999998
    vertex 46.76005044801429 16.000000000000004 12.999999999999998
    vertex 71.0 16.999999999999996 12.999999999999998
  endloop
endfacet
facet normal 0.0 0.0 1.0
  outer loop
    vertex 71.0 16.999999999999996 12.999999999999998
    vertex 46.76005044801429 16.000000000000004 12.999999999999998
    vertex 47.76005044801429 16.000000000000004 12.999999999999998
  endloop
endfacet
facet normal 0.0 0.0 1.0
  outer loop
    vertex 47.76005044801429 16.000000000000004 12.999999999999998
    vertex 46.76005044801429 16.000000000000004 12.999999999999998
    vertex 47.76005044801429 1.0000000000000038 12.999999999999998
  endloop
endfacet
facet normal 0.0 0.0 1.0
  outer loop
    vertex 71.0 16.999999999999996 12.999999999999998
    vertex 47.76005044801429 16.000000000000004 12.999999999999998
    vertex 71.0 16.000000000000004 12.999999999999998
  endloop
endfacet
facet normal 0.0 0.0 1.0
  outer loop
    vertex 59.99999999999999 37.99999999999999 12.999999999999998
    vertex 38.99999999999999 38.99999999999999 12.999999999999998
    vertex 38.99999999999999 37.99999999999999 12.999999999999998
  endloop
endfacet
facet normal 0.0 0.0 1.0
  outer loop
    vertex 38.99999999999999 38.99999999999999 12.999999999999998
    vertex 59.99999999999999 37.99999999999999 12.999999999999998
    vertex 59.99999999999999 38.99999999999999 12.999999999999998
  endloop
endfacet
facet normal 0.0 0.0 1.0
  outer loop
    vertex 59.99999999999999 58.99999999999999 12.999999999999998
    vertex 38.99999999999999 59.99999999999999 12.999999999999998
    vertex 38.99999999999999 58.99999999999999 12.999999999999998
  endloop
endfacet
facet normal 0.0 0.0 1.0
  outer loop
    vertex 38.99999999999999 59.99999999999999 12.999999999999998
    vertex 59.99999999999999 58.99999999999999 12.999999999999998
    vertex 59.99999999999999 59.99999999999999 12.999999999999998
  endloop
endfacet
facet normal 0.0 0.0 1.0
  outer loop
    vertex 38.0 78.99999999999999 12.999999999999998
    vertex 38.99999999999999 77.99999999999999 12.999999999999998
    vertex 59.00000000000001 78.99999999999999 12.999999999999998
  endloop
endfacet
facet normal 0.0 0.0 1.0
  outer loop
    vertex 38.99999999999999 77.99999999999999 12.999999999999998
    vertex 38.0 78.99999999999999 12.999999999999998
    vertex 38.99999999999999 16.999999999999993 12.999999999999998
  endloop
endfacet
facet normal 0.0 0.0 1.0
  outer loop
    vertex 38.99999999999999 77.99999999999999 12.999999999999998
    vertex 38.99999999999999 16.999999999999993 12.999999999999998
    vertex 38.99999999999999 37.99999999999999 12.999999999999998
  endloop
endfacet
facet normal 0.0 0.0 1.0
  outer loop
    vertex 38.99999999999999 77.99999999999999 12.999999999999998
    vertex 38.99999999999999 37.99999999999999 12.999999999999998
    vertex 38.99999999999999 38.99999999999999 12.999999999999998
  endloop
endfacet
facet normal 0.0 0.0 1.0
  outer loop
    vertex 38.99999999999999 77.99999999999999 12.999999999999998
    vertex 38.99999999999999 38.99999999999999 12.999999999999998
    vertex 38.99999999999999 58.99999999999999 12.999999999999998
  endloop
endfacet
facet normal 0.0 0.0 1.0
  outer loop
    vertex 38.99999999999999 77.99999999999999 12.999999999999998
    vertex 38.99999999999999 58.99999999999999 12.999999999999998
    vertex 38.99999999999999 59.99999999999999 12.999999999999998
  endloop
endfacet
facet normal 0.0 0.0 1.0
  outer loop
    vertex 59.00000000000001 78.99999999999999 12.999999999999998
    vertex 38.99999999999999 77.99999999999999 12.999999999999998
    vertex 60.0 77.99999999999999 12.999999999999998
  endloop
endfacet
facet normal 0.0 0.0 1.0
  outer loop
    vertex 59.00000000000001 78.99999999999999 12.999999999999998
    vertex 60.0 77.99999999999999 12.999999999999998
    vertex 59.00000000000001 89.0 12.999999999999998
  endloop
endfacet
facet normal 0.0 0.0 1.0
  outer loop
    vertex 59.00000000000001 89.0 12.999999999999998
    vertex 60.0 77.99999999999999 12.999999999999998
    vertex 60.0 89.0 12.999999999999998
  endloop
endfacet
facet normal 0.0 0.0 1.0
  outer loop
    vertex 27.0 89.0 12.999999999999998
    vertex 28.0 88.0 12.999999999999998
    vertex 49.0 89.0 12.999999999999998
  endloop
endfacet
facet normal 0.0 0.0 1.0
  outer loop
    vertex 28.0 88.0 12.999999999999998
    vertex 27.0 89.0 12.999999999999998
    vertex 28.0 16.999999999999993 12.999999999999998
  endloop
endfacet
facet normal 0.0 0.0 1.0
  outer loop
    vertex 49.0 89.0 12.999999999999998
    vertex 28.0 88.0 12.999999999999998
    vertex 49.0 88.0 12.999999999999998
  endloop
endfacet
facet normal 0.0 0.0 1.0
  outer loop
    vertex 16.000000000000014 16.0 12.999999999999998
    vertex 17.000000000000004 27.99999999999999 12.999999999999998
    vertex 16.000000000000014 27.99999999999999 12.999999999999998
  endloop
endfacet
facet normal 0.0 0.0 1.0
  outer loop
    vertex 17.000000000000004 27.99999999999999 12.999999999999998
    vertex 16.000000000000014 16.0 12.999999999999998
    vertex 17.000000000000004 17.000000000000004 12.999999999999998
  endloop
endfacet
facet normal -1.0 -0.0 -0.0
  outer loop
    vertex 124.00000000000001 99.00000000000001 12.999999999999998
    vertex 124.00000000000001 17.000000000000004 0.9999999999999999
    vertex 124.00000000000001 17.000000000000004 12.999999999999998
  endloop
endfacet
facet normal -1.0 -0.0 -0.0
  outer loop
    vertex 124.00000000000001 17.000000000000004 0.9999999999999999
    vertex 124.00000000000001 99.00000000000001 12.999999999999998
    vertex 124.00000000000001 99.00000000000001 0.9999999999999999
  endloop
endfacet
facet normal -1.1279865930191585e-15 1.0 0.0
  outer loop
    vertex 114.00000000000001 16.999999999999993 12.999999999999998
    vertex 124.00000000000001 17.000000000000004 0.9999999999999999
    vertex 114.00000000000001 16.999999999999993 0.9999999999999999
  endloop
endfacet
facet normal -1.1279865930191585e-15 1.0 0.0
  outer loop
    vertex 124.00000000000001 17.000000000000004 0.9999999999999999
    vertex 114.00000000000001 16.999999999999993 12.999999999999998
    vertex 124.00000000000001 17.000000000000004 12.999999999999998
  endloop
endfacet
facet normal 1.0 0.0 0.0
  outer loop
    vertex 114.00000000000001 37.999999999999986 0.9999999999999999
    vertex 114.00000000000001 16.999999999999993 12.999999999999998
    vertex 114.00000000000001 16.999999999999993 0.9999999999999999
  endloop
endfacet
facet normal 1.0 0.0 0.0
  outer loop
    vertex 114.00000000000001 16.999999999999993 12.999999999999998
    vertex 114.00000000000001 37.999999999999986 0.9999999999999999
    vertex 114.00000000000001 37.999999999999986 12.999999999999998
  endloop
endfacet
facet normal 0.0 1.0 0.0
  outer loop
    vertex 113.00000000000001 37.999999999999986 12.999999999999998
    vertex 114.00000000000001 37.999999999999986 0.9999999999999999
    vertex 113.00000000000001 37.999999999999986 0.9999999999999999
  endloop
endfacet
facet normal 0.0 1.0 0.0
  outer loop
    vertex 114.00000000000001 37.999999999999986 0.9999999999999999
    vertex 113.00000000000001 37.999999999999986 12.999999999999998
    vertex 114.00000000000001 37.999999999999986 12.999999999999998
  endloop
endfacet
facet normal -1.0 -0.0 -0.0
  outer loop
    vertex 113.00000000000001 37.999999999999986 12.999999999999998
    vertex 113.00000000000001 16.999999999999993 0.9999999999999999
    vertex 113.00000000000001 16.999999999999993 12.999999999999998
  endloop
endfacet
facet normal -1.0 -0.0 -0.0
  outer loop
    vertex 113.00000000000001 16.999999999999993 0.9999999999999999
    vertex 113.00000000000001 37.999999999999986 12.999999999999998
    vertex 113.00000000000001 37.999999999999986 0.9999999999999999
  endloop
endfacet
facet normal 8.812395257962176e-17 1.0 0.0
  outer loop
    vertex 81.0 16.999999999999993 12.999999999999998
    vertex 113.00000000000001 16.999999999999993 0.9999999999999999
    vertex 81.0 16.999999999999993 0.9999999999999999
  endloop
endfacet
facet normal 8.812395257962176e-17 1.0 0.0
  outer loop
    vertex 113.00000000000001 16.999999999999993 0.9999999999999999
    vertex 81.0 16.999999999999993 12.999999999999998
    vertex 113.00000000000001 16.999999999999993 12.999999999999998
  endloop
endfacet
facet normal -1.0 -0.0 -0.0
  outer loop
    vertex 81.0 16.999999999999993 12.999999999999998
    vertex 81.0 16.000000000000007 0.9999999999999999
    vertex 81.0 16.000000000000007 12.999999999999998
  endloop
endfacet
facet normal -1.0 -0.0 -0.0
  outer loop
    vertex 81.0 16.000000000000007 0.9999999999999999
    vertex 81.0 16.999999999999993 12.999999999999998
    vertex 81.0 16.999999999999993 0.9999999999999999
  endloop
endfacet
facet normal -5.246449269856551e-16 -1.0 -0.0
  outer loop
    vertex 124.00000000000001 15.999999999999984 12.999999999999998
    vertex 81.0 16.000000000000007 0.9999999999999999
    vertex 124.00000000000001 15.999999999999984 0.9999999999999999
  endloop
endfacet
facet normal -5.246449269856551e-16 -1.0 -0.0
  outer loop
    vertex 81.0 16.000000000000007 0.9999999999999999
    vertex 124.00000000000001 15.999999999999984 12.999999999999998
    vertex 81.0 16.000000000000007 12.999999999999998
  endloop
endfacet
facet normal -1.0 -0.0 -0.0
  outer loop
    vertex 124.00000000000001 15.999999999999984 12.999999999999998
    vertex 124.00000000000001 0.9999999999999996 0.9999999999999999
    vertex 124.00000000000001 0.9999999999999996 12.999999999999998
  endloop
endfacet
facet normal -1.0 -0.0 -0.0
  outer loop
    vertex 124.00000000000001 0.9999999999999996 0.9999999999999999
    vertex 124.00000000000001 15.999999999999984 12.999999999999998
    vertex 124.00000000000001 15.999999999999984 0.9999999999999999
  endloop
endfacet
facet normal 5.548206352022269e-17 1.0 0.0
  outer loop
    vertex 47.76005044801429 1.0000000000000038 12.999999999999998
    vertex 124.00000000000001 0.9999999999999996 0.9999999999999999
    vertex 47.76005044801429 1.0000000000000038 0.9999999999999999
  endloop
endfacet
facet normal 5.548206352022269e-17 1.0 0.0
  outer loop
    vertex 124.00000000000001 0.9999999999999996 0.9999999999999999
    vertex 47.76005044801429 1.0000000000000038 12.999999999999998
    vertex 124.00000000000001 0.9999999999999996 12.999999999999998
  endloop
endfacet
facet normal 1.0 0.0 0.0
  outer loop
    vertex 47.76005044801429 16.000000000000004 0.9999999999999999
    vertex 47.76005044801429 1.0000000000000038 12.999999999999998
    vertex 47.76005044801429 1.0000000000000038 0.9999999999999999
  endloop
endfacet
facet normal 1.0 0.0 0.0
  outer loop
    vertex 47.76005044801429 1.0000000000000038 12.999999999999998
    vertex 47.76005044801429 16.000000000000004 0.9999999999999999
    vertex 47.76005044801429 16.000000000000004 12.999999999999998
  endloop
endfacet
facet normal 0.0 -1.0 0.0
  outer loop
    vertex 71.0 16.000000000000004 12.999999999999998
    vertex 47.76005044801429 16.000000000000004 0.9999999999999999
    vertex 71.0 16.000000000000004 0.9999999999999999
  endloop
endfacet
facet normal 0.0 -1.0 0.0
  outer loop
    vertex 47.76005044801429 16.000000000000004 0.9999999999999999
    vertex 71.0 16.000000000000004 12.999999999999998
    vertex 47.76005044801429 16.000000000000004 12.999999999999998
  endloop
endfacet
facet normal 1.0 0.0 0.0
  outer loop
    vertex 71.0 16.999999999999996 0.9999999999999999
    vertex 71.0 16.000000000000004 12.999999999999998
    vertex 71.0 16.000000000000004 0.9999999999999999
  endloop
endfacet
facet normal 1.0 0.0 0.0
  outer loop
    vertex 71.0 16.000000000000004 12.999999999999998
    vertex 71.0 16.999999999999996 0.9999999999999999
    vertex 71.0 16.999999999999996 12.999999999999998
  endloop
endfacet
facet normal -1.7624790515924364e-16 1.0 0.0
  outer loop
    vertex 38.99999999999999 16.999999999999993 12.999999999999998
    vertex 71.0 16.999999999999996 0.9999999999999999
    vertex 38.99999999999999 16.999999999999993 0.9999999999999999
  endloop
endfacet
facet normal -1.7624790515924364e-16 1.0 0.0
  outer loop
    vertex 71.0 16.999999999999996 0.9999999999999999
    vertex 38.99999999999999 16.999999999999993 12.999999999999998
    vertex 71.0 16.999999999999996 12.999999999999998
  endloop
endfacet
facet normal 1.0 0.0 0.0
  outer loop
    vertex 38.99999999999999 37.99999999999999 0.9999999999999999
    vertex 38.99999999999999 16.999999999999993 12.999999999999998
    vertex 38.99999999999999 16.999999999999993 0.9999999999999999
  endloop
endfacet
facet normal 1.0 0.0 0.0
  outer loop
    vertex 38.99999999999999 16.999999999999993 12.999999999999998
    vertex 38.99999999999999 37.99999999999999 0.9999999999999999
    vertex 38.99999999999999 37.99999999999999 12.999999999999998
  endloop
endfacet
facet normal 0.0 -1.0 0.0
  outer loop
    vertex 59.99999999999999 37.99999999999999 12.999999999999998
    vertex 38.99999999999999 37.99999999999999 0.9999999999999999
    vertex 59.99999999999999 37.99999999999999 0.9999999999999999
  endloop
endfacet
facet normal 0.0 -1.0 0.0
  outer loop
    vertex 38.99999999999999 37.99999999999999 0.9999999999999999
    vertex 59.99999999999999 37.99999999999999 12.999999999999998
    vertex 38.99999999999999 37.99999999999999 12.999999999999998
  endloop
endfacet
facet normal 1.0 0.0 0.0
  outer loop
    vertex 59.99999999999999 38.99999999999999 0.9999999999999999
    vertex 59.99999999999999 37.99999999999999 12.999999999999998
    vertex 59.99999999999999 37.99999999999999 0.9999999999999999
  endloop
endfacet
facet normal 1.0 0.0 0.0
  outer loop
    vertex 59.99999999999999 37.99999999999999 12.999999999999998
    vertex 59.99999999999999 38.99999999999999 0.9999999999999999
    vertex 59.99999999999999 38.99999999999999 12.999999999999998
  endloop
endfacet
facet normal 0.0 1.0 0.0
  outer loop
    vertex 38.99999999999999 38.99999999999999 12.999999999999998
    vertex 59.99999999999999 38.99999999999999 0.9999999999999999
    vertex 38.99999999999999 38.99999999999999 0.9999999999999999
  endloop
endfacet
facet normal 0.0 1.0 0.0
  outer loop
    vertex 59.99999999999999 38.99999999999999 0.9999999999999999
    vertex 38.99999999999999 38.99999999999999 12.999999999999998
    vertex 59.99999999999999 38.99999999999999 12.999999999999998
  endloop
endfacet
facet normal 1.0 0.0 0.0
  outer loop
    vertex 38.99999999999999 58.99999999999999 0.9999999999999999
    vertex 38.99999999999999 38.99999999999999 12.999999999999998
    vertex 38.99999999999999 38.99999999999999 0.9999999999999999
  endloop
endfacet
facet normal 1.0 0.0 0.0
  outer loop
    vertex 38.99999999999999 38.99999999999999 12.999999999999998
    vertex 38.99999999999999 58.99999999999999 0.9999999999999999
    vertex 38.99999999999999 58.99999999999999 12.999999999999998
  endloop
endfacet
facet normal 0.0 -1.0 0.0
  outer loop
    vertex 59.99999999999999 58.99999999999999 12.999999999999998
    vertex 38.99999999999999 58.99999999999999 0.9999999999999999
    vertex 59.99999999999999 58.99999999999999 0.9999999999999999
  endloop
endfacet
facet normal 0.0 -1.0 0.0
  outer loop
    vertex 38.99999999999999 58.99999999999999 0.9999999999999999
    vertex 59.99999999999999 58.99999999999999 12.999999999999998
    vertex 38.99999999999999 58.99999999999999 12.999999999999998
  endloop
endfacet
facet normal 1.0 0.0 0.0
  outer loop
    vertex 59.99999999999999 59.99999999999999 0.9999999999999999
    vertex 59.99999999999999 58.99999999999999 12.999999999999998
    vertex 59.99999999999999 58.99999999999999 0.9999999999999999
  endloop
endfacet
facet normal 1.0 0.0 0.0
  outer loop
    vertex 59.99999999999999 58.99999999999999 12.999999999999998
    vertex 59.99999999999999 59.99999999999999 0.9999999999999999
    vertex 59.99999999999999 59.99999999999999 12.999999999999998
  endloop
endfacet
facet normal 0.0 1.0 0.0
  outer loop
    vertex 38.99999999999999 59.99999999999999 12.999999999999998
    vertex 59.99999999999999 59.99999999999999 0.9999999999999999
    vertex 38.99999999999999 59.99999999999999 0.9999999999999999
  endloop
endfacet
facet normal 0.0 1.0 0.0
  outer loop
    vertex 59.99999999999999 59.99999999999999 0.9999999999999999
    vertex 38.99999999999999 59.99999999999999 12.999999999999998
    vertex 59.99999999999999 59.99999999999999 12.999999999999998
  endloop
endfacet
facet normal 1.0 0.0 0.0
  outer loop
    vertex 38.99999999999999 77.99999999999999 0.9999999999999999
    vertex 38.99999999999999 59.99999999999999 12.999999999999998
    vertex 38.99999999999999 59.99999999999999 0.9999999999999999
  endloop
endfacet
facet normal 1.0 0.0 0.0
  outer loop
    vertex 38.99999999999999 59.99999999999999 12.999999999999998
    vertex 38.99999999999999 77.99999999999999 0.9999999999999999
    vertex 38.99999999999999 77.99999999999999 12.999999999999998
  endloop
endfacet
facet normal 0.0 -1.0 0.0
  outer loop
    vertex 60.0 77.99999999999999 12.999999999999998
    vertex 38.99999999999999 77.99999999999999 0.9999999999999999
    vertex 60.0 77.99999999999999 0.9999999999999999
  endloop
endfacet
facet normal 0.0 -1.0 0.0
  outer loop
    vertex 38.99999999999999 77.99999999999999 0.9999999999999999
    vertex 60.0 77.99999999999999 12.999999999999998
    vertex 38.99999999999999 77.99999999999999 12.999999999999998
  endloop
endfacet
facet normal 1.0 0.0 0.0
  outer loop
    vertex 60.0 89.0 0.9999999999999999
    vertex 60.0 77.99999999999999 12.999999999999998
    vertex 60.0 77.99999999999999 0.9999999999999999
  endloop
endfacet
facet normal 1.0 0.0 0.0
  outer loop
    vertex 60.0 77.99999999999999 12.999999999999998
    vertex 60.0 89.0 0.9999999999999999
    vertex 60.0 89.0 12.999999999999998
  endloop
endfacet
facet normal 0.0 1.0 0.0
  outer loop
    vertex 59.00000000000001 89.0 12.999999999999998
    vertex 60.0 89.0 0.9999999999999999
    vertex 59.00000000000001 89.0 0.9999999999999999
  endloop
endfacet
facet normal 0.0 1.0 0.0
  outer loop
    vertex 60.0 89.0 0.9999999999999999
    vertex 59.00000000000001 89.0 12.999999999999998
    vertex 60.0 89.0 12.999999999999998
  endloop
endfacet
facet normal -1.0 -0.0 -0.0
  outer loop
    vertex 59.00000000000001 89.0 12.999999999999998
    vertex 59.00000000000001 78.99999999999999 0.9999999999999999
    vertex 59.00000000000001 78.99999999999999 12.999999999999998
  endloop
endfacet
facet normal -1.0 -0.0 -0.0
  outer loop
    vertex 59.00000000000001 78.99999999999999 0.9999999999999999
    vertex 59.00000000000001 89.0 12.999999999999998
    vertex 59.00000000000001 89.0 0.9999999999999999
  endloop
endfacet
facet normal 0.0 1.0 0.0
  outer loop
    vertex 38.0 78.99999999999999 12.999999999999998
    vertex 59.00000000000001 78.99999999999999 0.9999999999999999
    vertex 38.0 78.99999999999999 0.9999999999999999
  endloop
endfacet
facet normal 0.0 1.0 0.0
  outer loop
    vertex 59.00000000000001 78.99999999999999 0.9999999999999999
    vertex 38.0 78.99999999999999 12.999999999999998
    vertex 59.00000000000001 78.99999999999999 12.999999999999998
  endloop
endfacet
facet normal -1.0 -0.0 -0.0
  outer loop
    vertex 38.0 78.99999999999999 12.999999999999998
    vertex 38.0 16.999999999999993 0.9999999999999999
    vertex 38.0 16.999999999999993 12.999999999999998
  endloop
endfacet
facet normal -1.0 -0.0 -0.0
  outer loop
    vertex 38.0 16.999999999999993 0.9999999999999999
    vertex 38.0 78.99999999999999 12.999999999999998
    vertex 38.0 78.99999999999999 0.9999999999999999
  endloop
endfacet
facet normal 0.0 1.0 0.0
  outer loop
    vertex 28.0 16.999999999999993 12.999999999999998
    vertex 38.0 16.999999999999993 0.9999999999999999
    vertex 28.0 16.999999999999993 0.9999999999999999
  endloop
endfacet
facet normal 0.0 1.0 0.0
  outer loop
    vertex 38.0 16.999999999999993 0.9999999999999999
    vertex 28.0 16.999999999999993 12.999999999999998
    vertex 38.0 16.999999999999993 12.999999999999998
  endloop
endfacet
facet normal 1.0 0.0 0.0
  outer loop
    vertex 28.0 88.0 0.9999999999999999
    vertex 28.0 16.999999999999993 12.999999999999998
    vertex 28.0 16.999999999999993 0.9999999999999999
  endloop
endfacet
facet normal 1.0 0.0 0.0
  outer loop
    vertex 28.0 16.999999999999993 12.999999999999998
    vertex 28.0 88.0 0.9999999999999999
    vertex 28.0 88.0 12.999999999999998
  endloop
endfacet
facet normal 0.0 -1.0 0.0
  outer loop
    vertex 49.0 88.0 12.999999999999998
    vertex 28.0 88.0 0.9999999999999999
    vertex 49.0 88.0 0.9999999999999999
  endloop
endfacet
facet normal 0.0 -1.0 0.0
  outer loop
    vertex 28.0 88.0 0.9999999999999999
    vertex 49.0 88.0 12.999999999999998
    vertex 28.0 88.0 12.999999999999998
  endloop
endfacet
facet normal 1.0 0.0 0.0
  outer loop
    vertex 49.0 89.0 0.9999999999999999
    vertex 49.0 88.0 12.999999999999998
    vertex 49.0 88.0 0.9999999999999999
  endloop
endfacet
facet normal 1.0 0.0 0.0
  outer loop
    vertex 49.0 88.0 12.999999999999998
    vertex 49.0 89.0 0.9999999999999999
    vertex 49.0 89.0 12.999999999999998
  endloop
endfacet
facet normal 0.0 1.0 0.0
  outer loop
    vertex 27.0 89.0 12.999999999999998
    vertex 49.0 89.0 0.9999999999999999
    vertex 27.0 89.0 0.9999999999999999
  endloop
endfacet
facet normal 0.0 1.0 0.0
  outer loop
    vertex 49.0 89.0 0.9999999999999999
    vertex 27.0 89.0 12.999999999999998
    vertex 49.0 89.0 12.999999999999998
  endloop
endfacet
facet normal -1.0 -0.0 -0.0
  outer loop
    vertex 27.0 89.0 12.999999999999998
    vertex 27.0 16.999999999999993 0.9999999999999999
    vertex 27.0 16.999999999999993 12.999999999999998
  endloop
endfacet
facet normal -1.0 -0.0 -0.0
  outer loop
    vertex 27.0 16.999999999999993 0.9999999999999999
    vertex 27.0 89.0 12.999999999999998
    vertex 27.0 89.0 0.9999999999999999
  endloop
endfacet
facet normal 1.1279865930191593e-15 1.0 0.0
  outer loop
    vertex 17.000000000000004 17.000000000000004 12.999999999999998
    vertex 27.0 16.999999999999993 0.9999999999999999
    vertex 17.000000000000004 17.000000000000004 0.9999999999999999
  endloop
endfacet
facet normal 1.1279865930191593e-15 1.0 0.0
  outer loop
    vertex 27.0 16.999999999999993 0.9999999999999999
    vertex 17.000000000000004 17.000000000000004 12.999999999999998
    vertex 27.0 16.999999999999993 12.999999999999998
  endloop
endfacet
facet normal 1.0 0.0 0.0
  outer loop
    vertex 17.000000000000004 27.99999999999999 0.9999999999999999
    vertex 17.000000000000004 17.000000000000004 12.999999999999998
    vertex 17.000000000000004 17.000000000000004 0.9999999999999999
  endloop
endfacet
facet normal 1.0 0.0 0.0
  outer loop
    vertex 17.000000000000004 17.000000000000004 12.999999999999998
    vertex 17.000000000000004 27.99999999999999 0.9999999999999999
    vertex 17.000000000000004 27.99999999999999 12.999999999999998
  endloop
endfacet
facet normal 0.0 1.0 0.0
  outer loop
    vertex 16.000000000000014 27.99999999999999 12.999999999999998
    vertex 17.000000000000004 27.99999999999999 0.9999999999999999
    vertex 16.000000000000014 27.99999999999999 0.9999999999999999
  endloop
endfacet
facet normal 0.0 1.0 0.0
  outer loop
    vertex 17.000000000000004 27.99999999999999 0.9999999999999999
    vertex 16.000000000000014 27.99999999999999 12.999999999999998
    vertex 17.000000000000004 27.99999999999999 12.999999999999998
  endloop
endfacet
facet normal -1.0 -2.349972068789917e-16 -0.0
  outer loop
    vertex 16.000000000000014 27.99999999999999 12.999999999999998
    vertex 16.000000000000014 16.0 0.9999999999999999
    vertex 16.000000000000014 16.0 12.999999999999998
  endloop
endfacet
facet normal -1.0 -2.349972068789917e-16 -0.0
  outer loop
    vertex 16.000000000000014 16.0 0.9999999999999999
    vertex 16.000000000000014 27.99999999999999 12.999999999999998
    vertex 16.000000000000014 27.99999999999999 0.9999999999999999
  endloop
endfacet
facet normal 9.167626325300586e-17 -1.0 0.0
  outer loop
    vertex 46.76005044801429 16.000000000000004 12.999999999999998
    vertex 16.000000000000014 16.0 0.9999999999999999
    vertex 46.76005044801429 16.000000000000004 0.9999999999999999
  endloop
endfacet
facet normal 9.167626325300586e-17 -1.0 0.0
  outer loop
    vertex 16.000000000000014 16.0 0.9999999999999999
    vertex 46.76005044801429 16.000000000000004 12.999999999999998
    vertex 16.000000000000014 16.0 12.999999999999998
  endloop
endfacet
facet normal -1.0 -0.0 -0.0
  outer loop
    vertex 46.76005044801429 16.000000000000004 12.999999999999998
    vertex 46.76005044801429 1.0000000000000038 0.9999999999999999
    vertex 46.76005044801429 1.0000000000000038 12.999999999999998
  endloop
endfacet
facet normal -1.0 -0.0 -0.0
  outer loop
    vertex 46.76005044801429 1.0000000000000038 0.9999999999999999
    vertex 46.76005044801429 16.000000000000004 12.999999999999998
    vertex 46.76005044801429 16.000000000000004 0.9999999999999999
  endloop
endfacet
facet normal -1.2325014745128047e-16 1.0 0.0
  outer loop
    vertex 0.9999999999999999 0.9999999999999981 12.999999999999998
    vertex 46.76005044801429 1.0000000000000038 0.9999999999999999
    vertex 0.9999999999999999 0.9999999999999981 0.9999999999999999
  endloop
endfacet
facet normal -1.2325014745128047e-16 1.0 0.0
  outer loop
    vertex 46.76005044801429 1.0000000000000038 0.9999999999999999
    vertex 0.9999999999999999 0.9999999999999981 12.999999999999998
    vertex 46.76005044801429 1.0000000000000038 12.999999999999998
  endloop
endfacet
facet normal 1.0 0.0 0.0
  outer loop
    vertex 0.9999999999999999 99.0 0.9999999999999999
    vertex 0.9999999999999999 0.9999999999999981 12.999999999999998
    vertex 0.9999999999999999 0.9999999999999981 0.9999999999999999
  endloop
endfacet
facet normal 1.0 0.0 0.0
  outer loop
    vertex 0.9999999999999999 0.9999999999999981 12.999999999999998
    vertex 0.9999999999999999 99.0 0.9999999999999999
    vertex 0.9999999999999999 99.0 12.999999999999998
  endloop
endfacet
facet normal 0.0 -1.0 0.0
  outer loop
    vertex 16.0 99.0 12.999999999999998
    vertex 0.9999999999999999 99.0 0.9999999999999999
    vertex 16.0 99.0 0.9999999999999999
  endloop
endfacet
facet normal 0.0 -1.0 0.0
  outer loop
    vertex 0.9999999999999999 99.0 0.9999999999999999
    vertex 16.0 99.0 12.999999999999998
    vertex 0.9999999999999999 99.0 12.999999999999998
  endloop
endfacet
facet normal -1.0 -1.848723666254213e-16 -0.0
  outer loop
    vertex 16.0 99.0 12.999999999999998
    vertex 16.000000000000014 37.98565731542636 0.9999999999999999
    vertex 16.000000000000014 37.98565731542636 12.999999999999998
  endloop
endfacet
facet normal -1.0 -1.848723666254213e-16 -0.0
  outer loop
    vertex 16.000000000000014 37.98565731542636 0.9999999999999999
    vertex 16.0 99.0 12.999999999999998
    vertex 16.0 99.0 0.9999999999999999
  endloop
endfacet
facet normal 0.0 -1.0 0.0
  outer loop
    vertex 17.000000000000004 37.98565731542636 12.999999999999998
    vertex 16.000000000000014 37.98565731542636 0.9999999999999999
    vertex 17.000000000000004 37.98565731542636 0.9999999999999999
  endloop
endfacet
facet normal 0.0 -1.0 0.0
  outer loop
    vertex 16.000000000000014 37.98565731542636 0.9999999999999999
    vertex 17.000000000000004 37.98565731542636 12.999999999999998
    vertex 16.000000000000014 37.98565731542636 12.999999999999998
  endloop
endfacet
facet normal 1.0 0.0 0.0
  outer loop
    vertex 17.000000000000004 99.0 0.9999999999999999
    vertex 17.000000000000004 37.98565731542636 12.999999999999998
    vertex 17.000000000000004 37.98565731542636 0.9999999999999999
  endloop
endfacet
facet normal 1.0 0.0 0.0
  outer loop
    vertex 17.000000000000004 37.98565731542636 12.999999999999998
    vertex 17.000000000000004 99.0 0.9999999999999999
    vertex 17.000000000000004 99.0 12.999999999999998
  endloop
endfacet
facet normal 1.0541930775879988e-16 -1.0 0.0
  outer loop
    vertex 124.00000000000001 99.00000000000001 12.999999999999998
    vertex 17.000000000000004 99.0 0.9999999999999999
    vertex 124.00000000000001 99.00000000000001 0.9999999999999999
  endloop
endfacet
facet normal 1.0541930775879988e-16 -1.0 0.0
  outer loop
    vertex 17.000000000000004 99.0 0.9999999999999999
    vertex 124.00000000000001 99.00000000000001 12.999999999999998
    vertex 17.000000000000004 99.0 12.999999999999998
  endloop
endfacet
facet normal 0.0 0.0 1.0
  outer loop
    vertex 81.0 26.99999999999999 12.999999999999998
    vertex 48.99999999999999 27.99999999999999 12.999999999999998
    vertex 48.999999999999986 26.99999999999999 12.999999999999998
  endloop
endfacet
facet normal 0.0 0.0 1.0
  outer loop
    vertex 48.99999999999999 27.99999999999999 12.999999999999998
    vertex 81.0 26.99999999999999 12.999999999999998
    vertex 70.0 27.99999999999999 12.999999999999998
  endloop
endfacet
facet normal 0.0 0.0 1.0
  outer loop
    vertex 70.0 27.99999999999999 12.999999999999998
    vertex 81.0 26.99999999999999 12.999999999999998
    vertex 71.0 27.999999999999982 12.999999999999998
  endloop
endfacet
facet normal 0.0 0.0 1.0
  outer loop
    vertex 70.0 27.99999999999999 12.999999999999998
    vertex 71.0 27.999999999999982 12.999999999999998
    vertex 70.0 48.999999999999986 12.999999999999998
  endloop
endfacet
facet normal 0.0 0.0 1.0
  outer loop
    vertex 70.0 48.999999999999986 12.999999999999998
    vertex 71.0 27.999999999999982 12.999999999999998
    vertex 70.0 49.999999999999986 12.999999999999998
  endloop
endfacet
facet normal 0.0 0.0 1.0
  outer loop
    vertex 70.0 49.999999999999986 12.999999999999998
    vertex 71.0 27.999999999999982 12.999999999999998
    vertex 70.0 67.99999999999999 12.999999999999998
  endloop
endfacet
facet normal 0.0 0.0 1.0
  outer loop
    vertex 71.0 27.999999999999982 12.999999999999998
    vertex 81.0 26.99999999999999 12.999999999999998
    vertex 81.0 27.99999999999999 12.999999999999998
  endloop
endfacet
facet normal 0.0 0.0 1.0
  outer loop
    vertex 70.0 67.99999999999999 12.999999999999998
    vertex 49.0 68.99999999999999 12.999999999999998
    vertex 49.0 67.99999999999999 12.999999999999998
  endloop
endfacet
facet normal 0.0 0.0 1.0
  outer loop
    vertex 49.0 68.99999999999999 12.999999999999998
    vertex 70.0 67.99999999999999 12.999999999999998
    vertex 71.0 68.99999999999993 12.999999999999998
  endloop
endfacet
facet normal 0.0 0.0 1.0
  outer loop
    vertex 71.0 68.99999999999993 12.999999999999998
    vertex 70.0 67.99999999999999 12.999999999999998
    vertex 71.0 27.999999999999982 12.999999999999998
  endloop
endfacet
facet normal 0.0 0.0 1.0
  outer loop
    vertex 70.0 48.999999999999986 12.999999999999998
    vertex 49.0 49.999999999999986 12.999999999999998
    vertex 48.99999999999999 48.999999999999986 12.999999999999998
  endloop
endfacet
facet normal 0.0 0.0 1.0
  outer loop
    vertex 49.0 49.999999999999986 12.999999999999998
    vertex 70.0 48.999999999999986 12.999999999999998
    vertex 70.0 49.999999999999986 12.999999999999998
  endloop
endfacet
facet normal 1.0 0.0 0.0
  outer loop
    vertex 71.0 68.99999999999993 0.9999999999999999
    vertex 71.0 27.999999999999982 12.999999999999998
    vertex 71.0 27.999999999999982 0.9999999999999999
  endloop
endfacet
facet normal 1.0 0.0 0.0
  outer loop
    vertex 71.0 27.999999999999982 12.999999999999998
    vertex 71.0 68.99999999999993 0.9999999999999999
    vertex 71.0 68.99999999999993 12.999999999999998
  endloop
endfacet
facet normal 2.5636058932253618e-15 1.0 0.0
  outer loop
    vertex 49.0 68.99999999999999 12.999999999999998
    vertex 71.0 68.99999999999993 0.9999999999999999
    vertex 49.0 68.99999999999999 0.9999999999999999
  endloop
endfacet
facet normal 2.5636058932253618e-15 1.0 0.0
  outer loop
    vertex 71.0 68.99999999999993 0.9999999999999999
    vertex 49.0 68.99999999999999 12.999999999999998
    vertex 71.0 68.99999999999993 12.999999999999998
  endloop
endfacet
facet normal -1.0 -0.0 -0.0
  outer loop
    vertex 49.0 68.99999999999999 12.999999999999998
    vertex 49.0 67.99999999999999 0.9999999999999999
    vertex 49.0 67.99999999999999 12.999999999999998
  endloop
endfacet
facet normal -1.0 -0.0 -0.0
  outer loop
    vertex 49.0 67.99999999999999 0.9999999999999999
    vertex 49.0 68.99999999999999 12.999999999999998
    vertex 49.0 68.99999999999999 0.9999999999999999
  endloop
endfacet
facet normal 0.0 -1.0 0.0
  outer loop
    vertex 70.0 67.99999999999999 12.999999999999998
    vertex 49.0 67.99999999999999 0.9999999999999999
    vertex 70.0 67.99999999999999 0.9999999999999999
  endloop
endfacet
facet normal 0.0 -1.0 0.0
  outer loop
    vertex 49.0 67.99999999999999 0.9999999999999999
    vertex 70.0 67.99999999999999 12.999999999999998
    vertex 49.0 67.99999999999999 12.999999999999998
  endloop
endfacet
facet normal -1.0 -0.0 -0.0
  outer loop
    vertex 70.0 67.99999999999999 12.999999999999998
    vertex 70.0 49.999999999999986 0.9999999999999999
    vertex 70.0 49.999999999999986 12.999999999999998
  endloop
endfacet
facet normal -1.0 -0.0 -0.0
  outer loop
    vertex 70.0 49.999999999999986 0.9999999999999999
    vertex 70.0 67.99999999999999 12.999999999999998
    vertex 70.0 67.99999999999999 0.9999999999999999
  endloop
endfacet
facet normal 0.0 1.0 0.0
  outer loop
    vertex 49.0 49.999999999999986 12.999999999999998
    vertex 70.0 49.999999999999986 0.9999999999999999
    vertex 49.0 49.999999999999986 0.9999999999999999
  endloop
endfacet
facet normal 0.0 1.0 0.0
  outer loop
    vertex 70.0 49.999999999999986 0.9999999999999999
    vertex 49.0 49.999999999999986 12.999999999999998
    vertex 70.0 49.999999999999986 12.999999999999998
  endloop
endfacet
facet normal -1.0 5.639932965095805e-15 0.0
  outer loop
    vertex 49.0 49.999999999999986 12.999999999999998
    vertex 48.99999999999999 48.999999999999986 0.9999999999999999
    vertex 48.99999999999999 48.999999999999986 12.999999999999998
  endloop
endfacet
facet normal -1.0 5.639932965095805e-15 0.0
  outer loop
    vertex 48.99999999999999 48.999999999999986 0.9999999999999999
    vertex 49.0 49.999999999999986 12.999999999999998
    vertex 49.0 49.999999999999986 0.9999999999999999
  endloop
endfacet
facet normal 0.0 -1.0 0.0
  outer loop
    vertex 70.0 48.999999999999986 12.999999999999998
    vertex 48.99999999999999 48.999999999999986 0.9999999999999999
    vertex 70.0 48.999999999999986 0.9999999999999999
  endloop
endfacet
facet normal 0.0 -1.0 0.0
  outer loop
    vertex 48.99999999999999 48.999999999999986 0.9999999999999999
    vertex 70.0 48.999999999999986 12.999999999999998
    vertex 48.99999999999999 48.999999999999986 12.999999999999998
  endloop
endfacet
facet normal -1.0 -0.0 -0.0
  outer loop
    vertex 70.0 48.999999999999986 12.999999999999998
    vertex 70.0 27.99999999999999 0.9999999999999999
    vertex 70.0 27.99999999999999 12.999999999999998
  endloop
endfacet
facet normal -1.0 -0.0 -0.0
  outer loop
    vertex 70.0 27.99999999999999 0.9999999999999999
    vertex 70.0 48.999999999999986 12.999999999999998
    vertex 70.0 48.999999999999986 0.9999999999999999
  endloop
endfacet
facet normal 0.0 1.0 0.0
  outer loop
    vertex 48.99999999999999 27.99999999999999 12.999999999999998
    vertex 70.0 27.99999999999999 0.9999999999999999
    vertex 48.99999999999999 27.99999999999999 0.9999999999999999
  endloop
endfacet
facet normal 0.0 1.0 0.0
  outer loop
    vertex 70.0 27.99999999999999 0.9999999999999999
    vertex 48.99999999999999 27.99999999999999 12.999999999999998
    vertex 70.0 27.99999999999999 12.999999999999998
  endloop
endfacet
facet normal -1.0 5.639932965095805e-15 0.0
  outer loop
    vertex 48.99999999999999 27.99999999999999 12.999999999999998
    vertex 48.999999999999986 26.99999999999999 0.9999999999999999
    vertex 48.999999999999986 26.99999999999999 12.999999999999998
  endloop
endfacet
facet normal -1.0 5.639932965095805e-15 0.0
  outer loop
    vertex 48.999999999999986 26.99999999999999 0.9999999999999999
    vertex 48.99999999999999 27.99999999999999 12.999999999999998
    vertex 48.99999999999999 27.99999999999999 0.9999999999999999
  endloop
endfacet
facet normal 0.0 -1.0 0.0
  outer loop
    vertex 81.0 26.99999999999999 12.999999999999998
    vertex 48.999999999999986 26.99999999999999 0.9999999999999999
    vertex 81.0 26.99999999999999 0.9999999999999999
  endloop
endfacet
facet normal 0.0 -1.0 0.0
  outer loop
    vertex 48.999999999999986 26.99999999999999 0.9999999999999999
    vertex 81.0 26.99999999999999 12.999999999999998
    vertex 48.999999999999986 26.99999999999999 12.999999999999998
  endloop
endfacet
facet normal 1.0 0.0 0.0
  outer loop
    vertex 81.0 27.99999999999999 0.9999999999999999
    vertex 81.0 26.99999999999999 12.999999999999998
    vertex 81.0 26.99999999999999 0.9999999999999999
  endloop
endfacet
facet normal 1.0 0.0 0.0
  outer loop
    vertex 81.0 26.99999999999999 12.999999999999998
    vertex 81.0 27.99999999999999 0.9999999999999999
    vertex 81.0 27.99999999999999 12.999999999999998
  endloop
endfacet
facet normal -5.639932965095792e-16 1.0 0.0
  outer loop
    vertex 71.0 27.999999999999982 12.999999999999998
    vertex 81.0 27.99999999999999 0.9999999999999999
    vertex 71.0 27.999999999999982 0.9999999999999999
  endloop
endfacet
facet normal -5.639932965095792e-16 1.0 0.0
  outer loop
    vertex 81.0 27.99999999999999 0.9999999999999999
    vertex 71.0 27.999999999999982 12.999999999999998
    vertex 81.0 27.99999999999999 12.999999999999998
  endloop
endfacet
facet normal 0.0 0.0 1.0
  outer loop
    vertex 71.0 77.99999999999999 13.00000000000001
    vertex 70.0 89.0 13.00000000000001
    vertex 70.0 77.99999999999999 13.00000000000001
  endloop
endfacet
facet normal 0.0 0.0 1.0
  outer loop
    vertex 70.0 89.0 13.00000000000001
    vertex 71.0 77.99999999999999 13.00000000000001
    vertex 71.0 89.0 13.00000000000001
  endloop
endfacet
facet normal 0.0 -1.0 0.0
  outer loop
    vertex 71.0 77.99999999999999 13.00000000000001
    vertex 70.0 77.99999999999999 0.9999999999999999
    vertex 71.0 77.99999999999999 0.9999999999999999
  endloop
endfacet
facet normal 0.0 -1.0 0.0
  outer loop
    vertex 70.0 77.99999999999999 0.9999999999999999
    vertex 71.0 77.99999999999999 13.00000000000001
    vertex 70.0 77.99999999999999 13.00000000000001
  endloop
endfacet
facet normal 1.0 0.0 0.0
  outer loop
    vertex 71.0 89.0 0.9999999999999999
    vertex 71.0 77.99999999999999 13.00000000000001
    vertex 71.0 77.99999999999999 0.9999999999999999
  endloop
endfacet
facet normal 1.0 0.0 0.0
  outer loop
    vertex 71.0 77.99999999999999 13.00000000000001
    vertex 71.0 89.0 0.9999999999999999
    vertex 71.0 89.0 13.00000000000001
  endloop
endfacet
facet normal 0.0 1.0 0.0
  outer loop
    vertex 70.0 89.0 13.00000000000001
    vertex 71.0 89.0 0.9999999999999999
    vertex 70.0 89.0 0.9999999999999999
  endloop
endfacet
facet normal 0.0 1.0 0.0
  outer loop
    vertex 71.0 89.0 0.9999999999999999
    vertex 70.0 89.0 13.00000000000001
    vertex 71.0 89.0 13.00000000000001
  endloop
endfacet
facet normal -1.0 -0.0 -0.0
  outer loop
    vertex 70.0 89.0 13.00000000000001
    vertex 70.0 77.99999999999999 0.9999999999999999
    vertex 70.0 77.99999999999999 13.00000000000001
  endloop
endfacet
facet normal -1.0 -0.0 -0.0
  outer loop
    vertex 70.0 77.99999999999999 0.9999999999999999
    vertex 70.0 89.0 13.00000000000001
    vertex 70.0 89.0 0.9999999999999999
  endloop
endfacet
facet normal 0.0 0.0 1.0
  outer loop
    vertex 90.99999999999999 26.99999999999999 12.999999999999998
    vertex 91.99999999999999 27.99999999999999 12.999999999999998
    vertex 90.99999999999999 36.999999999999986 12.999999999999998
  endloop
endfacet
facet normal 0.0 0.0 1.0
  outer loop
    vertex 91.99999999999999 27.99999999999999 12.999999999999998
    vertex 90.99999999999999 26.99999999999999 12.999999999999998
    vertex 102.99999999999999 26.99999999999999 12.999999999999998
  endloop
endfacet
facet normal 0.0 0.0 1.0
  outer loop
    vertex 91.99999999999999 27.99999999999999 12.999999999999998
    vertex 102.99999999999999 26.99999999999999 12.999999999999998
    vertex 102.0 27.99999999999999 12.999999999999998
  endloop
endfacet
facet normal 0.0 0.0 1.0
  outer loop
    vertex 102.0 27.99999999999999 12.999999999999998
    vertex 102.99999999999999 26.99999999999999 12.999999999999998
    vertex 102.0 77.99999999999999 12.999999999999998
  endloop
endfacet
facet normal 0.0 0.0 1.0
  outer loop
    vertex 102.0 77.99999999999999 12.999999999999998
    vertex 102.99999999999999 26.99999999999999 12.999999999999998
    vertex 102.99999999999999 77.99999999999999 12.999999999999998
  endloop
endfacet
facet normal 0.0 0.0 1.0
  outer loop
    vertex 80.99999999999999 36.999999999999986 12.999999999999998
    vertex 82.00000000000001 37.999999999999986 12.999999999999998
    vertex 81.00000000000001 89.0 12.999999999999998
  endloop
endfacet
facet normal 0.0 0.0 1.0
  outer loop
    vertex 82.00000000000001 37.999999999999986 12.999999999999998
    vertex 80.99999999999999 36.999999999999986 12.999999999999998
    vertex 90.99999999999999 36.999999999999986 12.999999999999998
  endloop
endfacet
facet normal 0.0 0.0 1.0
  outer loop
    vertex 82.00000000000001 37.999999999999986 12.999999999999998
    vertex 90.99999999999999 36.999999999999986 12.999999999999998
    vertex 91.99999999999999 37.999999999999986 12.999999999999998
  endloop
endfacet
facet normal 0.0 0.0 1.0
  outer loop
    vertex 91.99999999999999 37.999999999999986 12.999999999999998
    vertex 90.99999999999999 36.999999999999986 12.999999999999998
    vertex 91.99999999999999 27.99999999999999 12.999999999999998
  endloop
endfacet
facet normal 0.0 0.0 1.0
  outer loop
    vertex 82.00000000000001 89.0 12.999999999999998
    vertex 81.00000000000001 89.0 12.999999999999998
    vertex 82.00000000000001 37.999999999999986 12.999999999999998
  endloop
endfacet
facet normal -1.0 -0.0 -0.0
  outer loop
    vertex 90.99999999999999 36.999999999999986 12.999999999999998
    vertex 90.99999999999999 26.99999999999999 0.9999999999999999
    vertex 90.99999999999999 26.99999999999999 12.999999999999998
  endloop
endfacet
facet normal -1.0 -0.0 -0.0
  outer loop
    vertex 90.99999999999999 26.99999999999999 0.9999999999999999
    vertex 90.99999999999999 36.999999999999986 12.999999999999998
    vertex 90.99999999999999 36.999999999999986 0.9999999999999999
  endloop
endfacet
facet normal 0.0 -1.0 0.0
  outer loop
    vertex 102.99999999999999 26.99999999999999 12.999999999999998
    vertex 90.99999999999999 26.99999999999999 0.9999999999999999
    vertex 102.99999999999999 26.99999999999999 0.9999999999999999
  endloop
endfacet
facet normal 0.0 -1.0 0.0
  outer loop
    vertex 90.99999999999999 26.99999999999999 0.9999999999999999
    vertex 102.99999999999999 26.99999999999999 12.999999999999998
    vertex 90.99999999999999 26.99999999999999 12.999999999999998
  endloop
endfacet
facet normal 1.0 0.0 0.0
  outer loop
    vertex 102.99999999999999 77.99999999999999 0.9999999999999999
    vertex 102.99999999999999 26.99999999999999 12.999999999999998
    vertex 102.99999999999999 26.99999999999999 0.9999999999999999
  endloop
endfacet
facet normal 1.0 0.0 0.0
  outer loop
    vertex 102.99999999999999 26.99999999999999 12.999999999999998
    vertex 102.99999999999999 77.99999999999999 0.9999999999999999
    vertex 102.99999999999999 77.99999999999999 12.999999999999998
  endloop
endfacet
facet normal 0.0 1.0 0.0
  outer loop
    vertex 102.0 77.99999999999999 12.999999999999998
    vertex 102.99999999999999 77.99999999999999 0.9999999999999999
    vertex 102.0 77.99999999999999 0.9999999999999999
  endloop
endfacet
facet normal 0.0 1.0 0.0
  outer loop
    vertex 102.99999999999999 77.99999999999999 0.9999999999999999
    vertex 102.0 77.99999999999999 12.999999999999998
    vertex 102.99999999999999 77.99999999999999 12.999999999999998
  endloop
endfacet
facet normal -1.0 -0.0 -0.0
  outer loop
    vertex 102.0 77.99999999999999 12.999999999999998
    vertex 102.0 27.99999999999999 0.9999999999999999
    vertex 102.0 27.99999999999999 12.999999999999998
  endloop
endfacet
facet normal -1.0 -0.0 -0.0
  outer loop
    vertex 102.0 27.99999999999999 0.9999999999999999
    vertex 102.0 77.99999999999999 12.999999999999998
    vertex 102.0 77.99999999999999 0.9999999999999999
  endloop
endfacet
facet normal 0.0 1.0 0.0
  outer loop
    vertex 91.99999999999999 27.99999999999999 12.999999999999998
    vertex 102.0 27.99999999999999 0.9999999999999999
    vertex 91.99999999999999 27.99999999999999 0.9999999999999999
  endloop
endfacet
facet normal 0.0 1.0 0.0
  outer loop
    vertex 102.0 27.99999999999999 0.9999999999999999
    vertex 91.99999999999999 27.99999999999999 12.999999999999998
    vertex 102.0 27.99999999999999 12.999999999999998
  endloop
endfacet
facet normal 1.0 0.0 0.0
  outer loop
    vertex 91.99999999999999 37.999999999999986 0.9999999999999999
    vertex 91.99999999999999 27.99999999999999 12.999999999999998
    vertex 91.99999999999999 27.99999999999999 0.9999999999999999
  endloop
endfacet
facet normal 1.0 0.0 0.0
  outer loop
    vertex 91.99999999999999 27.99999999999999 12.999999999999998
    vertex 91.99999999999999 37.999999999999986 0.9999999999999999
    vertex 91.99999999999999 37.999999999999986 12.999999999999998
  endloop
endfacet
facet normal 0.0 1.0 0.0
  outer loop
    vertex 82.00000000000001 37.999999999999986 12.999999999999998
    vertex 91.99999999999999 37.999999999999986 0.9999999999999999
    vertex 82.00000000000001 37.999999999999986 0.9999999999999999
  endloop
endfacet
facet normal 0.0 1.0 0.0
  outer loop
    vertex 91.99999999999999 37.999999999999986 0.9999999999999999
    vertex 82.00000000000001 37.999999999999986 12.999999999999998
    vertex 91.99999999999999 37.999999999999986 12.999999999999998
  endloop
endfacet
facet normal 1.0 0.0 0.0
  outer loop
    vertex 82.00000000000001 89.0 0.9999999999999999
    vertex 82.00000000000001 37.999999999999986 12.999999999999998
    vertex 82.00000000000001 37.999999999999986 0.9999999999999999
  endloop
endfacet
facet normal 1.0 0.0 0.0
  outer loop
    vertex 82.00000000000001 37.999999999999986 12.999999999999998
    vertex 82.00000000000001 89.0 0.9999999999999999
    vertex 82.00000000000001 89.0 12.999999999999998
  endloop
endfacet
facet normal 0.0 1.0 0.0
  outer loop
    vertex 81.00000000000001 89.0 12.999999999999998
    vertex 82.00000000000001 89.0 0.9999999999999999
    vertex 81.00000000000001 89.0 0.9999999999999999
  endloop
endfacet
facet normal 0.0 1.0 0.0
  outer loop
    vertex 82.00000000000001 89.0 0.9999999999999999
    vertex 81.00000000000001 89.0 12.999999999999998
    vertex 82.00000000000001 89.0 12.999999999999998
  endloop
endfacet
facet normal -1.0 4.338409973150611e-16 0.0
  outer loop
    vertex 81.00000000000001 89.0 12.999999999999998
    vertex 80.99999999999999 36.999999999999986 0.9999999999999999
    vertex 80.99999999999999 36.999999999999986 12.999999999999998
  endloop
endfacet
facet normal -1.0 4.338409973150611e-16 0.0
  outer loop
    vertex 80.99999999999999 36.999999999999986 0.9999999999999999
    vertex 81.00000000000001 89.0 12.999999999999998
    vertex 81.00000000000001 89.0 0.9999999999999999
  endloop
endfacet
facet normal 0.0 -1.0 0.0
  outer loop
    vertex 90.99999999999999 36.999999999999986 12.999999999999998
    vertex 80.99999999999999 36.999999999999986 0.9999999999999999
    vertex 90.99999999999999 36.999999999999986 0.9999999999999999
  endloop
endfacet
facet normal 0.0 -1.0 0.0
  outer loop
    vertex 80.99999999999999 36.999999999999986 0.9999999999999999
    vertex 90.99999999999999 36.999999999999986 12.999999999999998
    vertex 80.99999999999999 36.999999999999986 12.999999999999998
  endloop
endfacet
facet normal 0.0 0.0 1.0
  outer loop
    vertex 114.00000000000001 48.99999999999999 12.999999999999998
    vertex 113.00000000000001 88.0 12.999999999999998
    vertex 113.00000000000001 48.99999999999999 12.999999999999998
  endloop
endfacet
facet normal 0.0 0.0 1.0
  outer loop
    vertex 93.00000000000001 48.99999999999999 12.999999999999998
    vertex 92.00000000000001 89.0 12.999999999999998
    vertex 92.00000000000001 48.99999999999999 12.999999999999998
  endloop
endfacet
facet normal 0.0 0.0 1.0
  outer loop
    vertex 92.00000000000001 89.0 12.999999999999998
    vertex 93.00000000000001 48.99999999999999 12.999999999999998
    vertex 93.00000000000001 88.0 12.999999999999998
  endloop
endfacet
facet normal 0.0 0.0 1.0
  outer loop
    vertex 92.00000000000001 89.0 12.999999999999998
    vertex 93.00000000000001 88.0 12.999999999999998
    vertex 114.00000000000001 89.0 12.999999999999998
  endloop
endfacet
facet normal 0.0 0.0 1.0
  outer loop
    vertex 114.00000000000001 89.0 12.999999999999998
    vertex 93.00000000000001 88.0 12.999999999999998
    vertex 113.00000000000001 88.0 12.999999999999998
  endloop
endfacet
facet normal 0.0 0.0 1.0
  outer loop
    vertex 114.00000000000001 89.0 12.999999999999998
    vertex 113.00000000000001 88.0 12.999999999999998
    vertex 114.00000000000001 48.99999999999999 12.999999999999998
  endloop
endfacet
facet normal -1.0 -0.0 -0.0
  outer loop
    vertex 113.00000000000001 88.0 12.999999999999998
    vertex 113.00000000000001 48.99999999999999 0.9999999999999999
    vertex 113.00000000000001 48.99999999999999 12.999999999999998
  endloop
endfacet
facet normal -1.0 -0.0 -0.0
  outer loop
    vertex 113.00000000000001 48.99999999999999 0.9999999999999999
    vertex 113.00000000000001 88.0 12.999999999999998
    vertex 113.00000000000001 88.0 0.9999999999999999
  endloop
endfacet
facet normal 0.0 -1.0 0.0
  outer loop
    vertex 114.00000000000001 48.99999999999999 12.999999999999998
    vertex 113.00000000000001 48.99999999999999 0.9999999999999999
    vertex 114.00000000000001 48.99999999999999 0.9999999999999999
  endloop
endfacet
facet normal 0.0 -1.0 0.0
  outer loop
    vertex 113.00000000000001 48.99999999999999 0.9999999999999999
    vertex 114.00000000000001 48.99999999999999 12.999999999999998
    vertex 113.00000000000001 48.99999999999999 12.999999999999998
  endloop
endfacet
facet normal 1.0 0.0 0.0
  outer loop
    vertex 114.00000000000001 89.0 0.9999999999999999
    vertex 114.00000000000001 48.99999999999999 12.999999999999998
    vertex 114.00000000000001 48.99999999999999 0.9999999999999999
  endloop
endfacet
facet normal 1.0 0.0 0.0
  outer loop
    vertex 114.00000000000001 48.99999999999999 12.999999999999998
    vertex 114.00000000000001 89.0 0.9999999999999999
    vertex 114.00000000000001 89.0 12.999999999999998
  endloop
endfacet
facet normal 0.0 1.0 0.0
  outer loop
    vertex 92.00000000000001 89.0 12.999999999999998
    vertex 114.00000000000001 89.0 0.9999999999999999
    vertex 92.00000000000001 89.0 0.9999999999999999
  endloop
endfacet
facet normal 0.0 1.0 0.0
  outer loop
    vertex 114.00000000000001 89.0 0.9999999999999999
    vertex 92.00000000000001 89.0 12.999999999999998
    vertex 114.00000000000001 89.0 12.999999999999998
  endloop
endfacet
facet normal -1.0 -0.0 -0.0
  outer loop
    vertex 92.00000000000001 89.0 12.999999999999998
    vertex 92.00000000000001 48.99999999999999 0.9999999999999999
    vertex 92.00000000000001 48.99999999999999 12.999999999999998
  endloop
endfacet
facet normal -1.0 -0.0 -0.0
  outer loop
    vertex 92.00000000000001 48.99999999999999 0.9999999999999999
    vertex 92.00000000000001 89.0 12.999999999999998
    vertex 92.00000000000001 89.0 0.9999999999999999
  endloop
endfacet
facet normal 0.0 -1.0 0.0
  outer loop
    vertex 93.00000000000001 48.99999999999999 12.999999999999998
    vertex 92.00000000000001 48.99999999999999 0.9999999999999999
    vertex 93.00000000000001 48.99999999999999 0.9999999999999999
  endloop
endfacet
facet normal 0.0 -1.0 0.0
  outer loop
    vertex 92.00000000000001 48.99999999999999 0.9999999999999999
    vertex 93.00000000000001 48.99999999999999 12.999999999999998
    vertex 92.00000000000001 48.99999999999999 12.999999999999998
  endloop
endfacet
facet normal 1.0 0.0 0.0
  outer loop
    vertex 93.00000000000001 88.0 0.9999999999999999
    vertex 93.00000000000001 48.99999999999999 12.999999999999998
    vertex 93.00000000000001 48.99999999999999 0.9999999999999999
  endloop
endfacet
facet normal 1.0 0.0 0.0
  outer loop
    vertex 93.00000000000001 48.99999999999999 12.999999999999998
    vertex 93.00000000000001 88.0 0.9999999999999999
    vertex 93.00000000000001 88.0 12.999999999999998
  endloop
endfacet
facet normal 0.0 -1.0 0.0
  outer loop
    vertex 113.00000000000001 88.0 12.999999999999998
    vertex 93.00000000000001 88.0 0.9999999999999999
    vertex 113.00000000000001 88.0 0.9999999999999999
  endloop
endfacet
facet normal 0.0 -1.0 0.0
  outer loop
    vertex 93.00000000000001 88.0 0.9999999999999999
    vertex 113.00000000000001 88.0 12.999999999999998
    vertex 93.00000000000001 88.0 12.999999999999998
  endloop
endfacet
endsolid labyrinthe V1.1
