{"accessors" : [{"bufferView" : 0, "byteOffset" : 0, "componentType" : 5123, "count" : 1068, "type" : "SCALAR", "max" : [1067], "min" : [0]}, {"bufferView" : 1, "byteOffset" : 0, "componentType" : 5126, "count" : 1068, "type" : "VEC3", "max" : [126, 101, 13], "min" : [-1, -1, 0], "name" : "POSITION"}, {"bufferView" : 1, "byteOffset" : 12, "componentType" : 5126, "count" : 1068, "type" : "VEC3", "max" : [1.0000044107437134, 1.0000044107437134, 1.0000044107437134], "min" : [-1.0000044107437134, -1.0000044107437134, -1.0000044107437134], "name" : "NORMAL"}], "asset" : {"generator" : "Aspose.3D 23.2", "version" : "2.0"}, "buffers" : [{"uri" : "data:application/octet-stream;base64,", "byteLength" : 27776}], "bufferViews" : [{"buffer" : 0, "byteOffset" : 0, "byteLength" : 2136, "target" : 34963}, {"buffer" : 0, "byteOffset" : 2140, "byteLength" : 25632, "byteStride" : 24, "target" : 34962}], "meshes" : [{"primitives" : [{"attributes" : {"POSITION" : 1, "NORMAL" : 2}, "indices" : 0, "mode" : 4}], "name" : "labyrinthe V1.1"}], "nodes" : [{"mesh" : 0, "name" : "labyrinthe V1.1"}], "scene" : 0, "scenes" : [{"nodes" : [0]}]}